<svg xmlns="http://www.w3.org/2000/svg" version="1.1" xmlns:xlink="http://www.w3.org/1999/xlink" xmlns:svgjs="http://svgjs.dev/svgjs" width="1500" height="1500" viewBox="0 0 1500 1500"><rect width="1500" height="1500" fill="#000000"></rect><g transform="matrix(0.6666666666666666,0,0,0.6666666666666666,250.00001377604167,281.3333333333334)"><svg viewBox="0 0 384 360" data-background-color="#ffffff" preserveAspectRatio="xMidYMid meet" height="1406" width="1500" xmlns="http://www.w3.org/2000/svg" xmlns:xlink="http://www.w3.org/1999/xlink"><g id="tight-bounds" transform="matrix(1,0,0,1,0.000005289999990054639,0)"><svg viewBox="0 0 384 360" height="360" width="384"><g><svg></svg></g><g><svg viewBox="0 0 384 360" height="360" width="384"><g><path transform="translate(-42.61557,-54.61557) scale(4.69231,4.69231)" d="M86.305 42.635v-9.002c0-4.501-4.084-8.184-9.076-8.184h-19.864c-3.239 0-6.039-1.882-7.365-4.613-1.326 2.73-4.126 4.613-7.365 4.613h-19.864c-4.992 0-9.076 3.683-9.076 8.184v9.002c0 3.239-1.882 6.039-4.613 7.365 2.73 1.326 4.613 4.126 4.613 7.365v9.002c0 4.501 4.084 8.184 9.076 8.184h19.864c3.239 0 6.039 1.882 7.365 4.613 1.326-2.73 4.126-4.613 7.365-4.613h19.864c4.992 0 9.076-3.683 9.076-8.184v-9.002c0-3.239 1.882-6.039 4.613-7.365-2.73-1.326-4.613-4.126-4.613-7.365z" fill="#ffffff" fill-rule="nonzero" stroke="none" stroke-width="1" stroke-linecap="butt" stroke-linejoin="miter" stroke-miterlimit="10" stroke-dasharray="" stroke-dashoffset="0" font-family="none" font-weight="none" font-size="none" text-anchor="none" style="mix-blend-mode: normal" data-fill-palette-color="tertiary"></path></g><g transform="matrix(1,0,0,1,76.80000000000001,145.33856212273452)"><svg viewBox="0 0 230.39999999999998 69.32287575453098" height="69.32287575453098" width="230.39999999999998"><g><svg viewBox="0 0 355.707827518347 107.02556220472442" height="69.32287575453098" width="230.39999999999998"><g transform="matrix(1,0,0,1,125.30782751834701,14.791521259842526)"><svg viewBox="0 0 230.39999999999998 77.44251968503937" height="77.44251968503937" width="230.39999999999998"><g id="textblocktransform"><svg viewBox="0 0 230.39999999999998 77.44251968503937" height="77.44251968503937" width="230.39999999999998" id="textblock"><g><svg viewBox="0 0 230.39999999999998 77.44251968503937" height="77.44251968503937" width="230.39999999999998"><g transform="matrix(1,0,0,1,0,0)"><svg width="230.39999999999998" viewBox="0.75 -33.75 101.59 34.15" height="77.44251968503937" data-palette-color="#ffffff"><path d="M0.75 0L7.25-33.65 11.9-33.25Q12.75-33.45 14-33.6 15.25-33.75 16.75-33.75L16.75-33.75Q18.95-33.75 20.78-33.38 22.6-33 23.93-32.15 25.25-31.3 25.98-29.9 26.7-28.5 26.7-26.45L26.7-26.45Q26.7-23.35 25.6-20.9 24.5-18.45 22.58-16.75 20.65-15.05 18.03-14.18 15.4-13.3 12.4-13.3L12.4-13.3Q11.7-13.3 10.85-13.3 10-13.3 9.1-13.4L9.1-13.4 6.55 0 0.75 0ZM15.2-29.75Q14.35-29.75 13.63-29.7 12.9-29.65 12.25-29.55L12.25-29.55 9.95-17.7 11.2-17.7Q16-17.7 18.25-19.7 20.5-21.7 20.5-25.25L20.5-25.25Q20.5-27.25 19.3-28.5 18.1-29.75 15.2-29.75L15.2-29.75ZM18.8-0.95L37.05-33.45 41.6-33.45 48 0 41.9 0 40.45-9 29.25-9 24.5 0.4 18.8-0.95ZM39.85-13.15Q39.15-17.4 38.75-20.88 38.35-24.35 38.1-26.45L38.1-26.45Q36.95-24.25 35.17-20.8 33.4-17.35 31.3-13.15L31.3-13.15 39.85-13.15ZM50 0L56.5-33.65 61.1-33.25Q61.95-33.45 63.2-33.6 64.45-33.75 65.95-33.75L65.95-33.75Q68.15-33.75 70-33.38 71.84-33 73.17-32.15 74.5-31.3 75.22-29.9 75.95-28.5 75.95-26.45L75.95-26.45Q75.95-23.35 74.2-21.15 72.45-18.95 69.75-17.65L69.75-17.65Q72-16.7 73.07-15 74.15-13.3 74.15-10.95L74.15-10.95Q74.15-8.35 73.02-6.33 71.9-4.3 69.92-2.88 67.95-1.45 65.27-0.7 62.6 0.05 59.5 0.05L59.5 0.05Q58.2 0.05 56.75 0.05 55.3 0.05 54.05 0.03 52.8 0 51.95 0 51.1 0 51.05 0L51.05 0 50 0ZM62.25-15.2L58.7-15.2 56.55-3.95 59.05-3.95Q63.1-3.95 65.5-5.68 67.9-7.4 67.9-10.3L67.9-10.3Q67.9-11.4 67.65-12.3 67.4-13.2 66.75-13.85 66.09-14.5 65-14.85 63.9-15.2 62.25-15.2L62.25-15.2ZM64.45-29.75Q63.6-29.75 62.87-29.7 62.15-29.65 61.5-29.55L61.5-29.55 59.55-19.45 61.55-19.45Q63.85-19.45 65.4-19.9 66.95-20.35 67.92-21.15 68.9-21.95 69.32-23 69.75-24.05 69.75-25.25L69.75-25.25Q69.75-27.25 68.55-28.5 67.34-29.75 64.45-29.75L64.45-29.75ZM98.04 0L75.74 0 75.74-3.1 94.24-29.25Q94.09-29.25 93.47-29.23 92.84-29.2 92.59-29.2L92.59-29.2 81.29-29.2 82.09-33.45 102.34-33.45 102.34-30.3 83.74-4.15Q84.34-4.15 84.97-4.17 85.59-4.2 86.29-4.2L86.29-4.2 98.04-4.2 98.04 0Z" opacity="1" transform="matrix(1,0,0,1,0,0)" fill="#000000" class="wordmark-text-0" data-fill-palette-color="quaternary" id="text-0"></path></svg></g></svg></g></svg></g></svg></g><g><svg viewBox="0 0 107.02550724118166 107.02556220472442" height="107.02556220472442" width="107.02550724118166"><g><svg xmlns="http://www.w3.org/2000/svg" xmlns:xlink="http://www.w3.org/1999/xlink" version="1.1" x="0" y="0" viewBox="4.999802624769675 4.9994999999999985 90.00069737523032 90.00074359558756" enable-background="new 0 0 100 100" xml:space="preserve" height="107.02556220472442" width="107.02550724118166" class="icon-icon-0" data-fill-palette-color="quaternary" id="icon-0"><g fill="#ffffff" data-fill-palette-color="quaternary"><path d="M5.316 94.538l3.806-25.693C1.46 52.219 4.479 31.881 18.18 18.18c17.574-17.574 46.066-17.574 63.64 0s17.574 46.066 0 63.64c-13.884 13.884-34.583 16.799-51.328 8.745L5.316 94.538zM23.799 49.684c0 3.189 2.585 5.774 5.774 5.774s5.774-2.585 5.774-5.774c0-3.189-2.585-5.774-5.774-5.774S23.799 46.495 23.799 49.684zM44.361 49.684c0 3.189 2.585 5.774 5.774 5.774 3.189 0 5.774-2.585 5.774-5.774 0-3.189-2.585-5.774-5.774-5.774C46.946 43.91 44.361 46.495 44.361 49.684zM64.923 49.684c0 3.189 2.585 5.774 5.774 5.774s5.774-2.585 5.774-5.774c0-3.189-2.585-5.774-5.774-5.774S64.923 46.495 64.923 49.684z" fill="#000000" data-fill-palette-color="quaternary"></path></g></svg></g></svg></g></svg></g></svg></g></svg></g><defs></defs></svg><rect width="384" height="360" fill="none" stroke="none" visibility="hidden"></rect></g></svg></g></svg>